<?xml version="1.0" encoding="UTF-8"?>
<svg version="1.1" xmlns="http://www.w3.org/2000/svg" width="399" height="74">
<path d="M0 0 C131.67 0 263.34 0 399 0 C399 24.42 399 48.84 399 74 C267.33 74 135.66 74 0 74 C0 49.58 0 25.16 0 0 Z " fill="#151516" transform="translate(0,0)"/>
<path d="M0 0 C4.86175329 2.85125381 8.52097419 6.43975445 10.21875 11.98046875 C11.52598808 18.52876319 11.24321368 24.47614711 7.921875 30.3359375 C5.45095054 33.72592532 2.40610566 36.21100967 -1.359375 38.09375 C-7.21413211 38.58703755 -12.54921781 38.95119288 -17.921875 36.40625 C-23.59034083 31.02847473 -25.94192207 26.60224163 -26.671875 18.71875 C-26.11083403 12.21067478 -24.89119888 7.02983997 -19.859375 2.59375 C-14.29501909 -1.79916256 -6.61584054 -2.54118379 0 0 Z " fill="#F6F6F6" transform="translate(91.359375,17.90625)"/>
<path d="M0 0 C19 0 19 0 26 3 C28.45193779 6.67790669 28.71511798 9.72592275 28 14 C26 17 26 17 24 19 C24.804375 19.61875 25.60875 20.2375 26.4375 20.875 C29.38871505 23.32234907 29.88667556 24.00274496 30.3125 27.75 C29.91753151 31.85767229 28.5942368 33.82926614 26 37 C22.87860339 38.99389913 20.46413506 39.23795506 16.796875 39.1953125 C15.91354492 39.19031738 15.03021484 39.18532227 14.12011719 39.18017578 C13.00797852 39.16196777 11.89583984 39.14375977 10.75 39.125 C7.2025 39.08375 3.655 39.0425 0 39 C0 26.13 0 13.26 0 0 Z " fill="#F7F7F7" transform="translate(31,17)"/>
<path d="M0 0 C3.17625 -0.0825 6.3525 -0.165 9.625 -0.25 C10.6145166 -0.28641602 11.6040332 -0.32283203 12.62353516 -0.36035156 C19.63081703 -0.44817276 22.6825684 1.01431156 27.875 5.6875 C29.67171995 9.38075768 29.53806324 12.97528696 29 17 C27.6875 20 27.6875 20 26 22 C25.01 22.33 24.02 22.66 23 23 C23.5053125 23.98742187 24.010625 24.97484375 24.53125 25.9921875 C25.18771013 27.28635176 25.84394867 28.58062845 26.5 29.875 C26.83386719 30.52597656 27.16773438 31.17695312 27.51171875 31.84765625 C30 36.7734375 30 36.7734375 30 39 C27.03 39 24.06 39 21 39 C20.56429687 38.07316406 20.12859375 37.14632812 19.6796875 36.19140625 C19.07927492 34.98119965 18.47764831 33.77159483 17.875 32.5625 C17.59140625 31.95083984 17.3078125 31.33917969 17.015625 30.70898438 C16.0365528 28.67116183 16.0365528 28.67116183 14 26 C12.02 25.67 10.04 25.34 8 25 C8 29.62 8 34.24 8 39 C5.36 39 2.72 39 0 39 C0 26.13 0 13.26 0 0 Z " fill="#F9D400" transform="translate(215,17)"/>
<path d="M0 0 C7 0 7 0 8.83276367 1.46533203 C9.27338135 2.13935059 9.71399902 2.81336914 10.16796875 3.5078125 C10.91916992 4.61769531 10.91916992 4.61769531 11.68554688 5.75 C12.18119141 6.53375 12.67683594 7.3175 13.1875 8.125 C13.69474609 8.88554687 14.20199219 9.64609375 14.72460938 10.4296875 C15.67892637 11.86549517 16.62376473 13.30768602 17.55541992 14.75830078 C19.33894707 17.52597803 21.17361168 20.26041752 23 23 C23.33 15.41 23.66 7.82 24 0 C26.64 0 29.28 0 32 0 C32 12.87 32 25.74 32 39 C25 39 25 39 22.59375 36.7265625 C21.9028125 35.70304687 21.211875 34.67953125 20.5 33.625 C20.12689697 33.08713867 19.75379395 32.54927734 19.36938477 31.99511719 C18.60372509 30.88729877 17.84791865 29.77260646 17.10205078 28.65136719 C15.43160072 26.14828251 13.67818511 23.70454184 11.9375 21.25 C10.4834375 19.14625 10.4834375 19.14625 9 17 C8.67 24.26 8.34 31.52 8 39 C5.36 39 2.72 39 0 39 C0 26.13 0 13.26 0 0 Z " fill="#FAFAFA" transform="translate(108,17)"/>
<path d="M0 0 C3.63 0 7.26 0 11 0 C12.69506981 4.74901614 14.38560726 9.49961226 16.07202148 14.25170898 C16.64598245 15.86705695 17.22116503 17.48197142 17.79760742 19.09643555 C18.62742898 21.42122468 19.4528002 23.74755322 20.27734375 26.07421875 C20.53466782 26.79212082 20.79199188 27.51002289 21.05711365 28.24967957 C22.31337407 31.80822811 23.38673609 35.27275352 24 39 C21.03 39 18.06 39 15 39 C14.34 36.03 13.68 33.06 13 30 C8.05 30 3.1 30 -2 30 C-2.66 32.97 -3.32 35.94 -4 39 C-6.97 39 -9.94 39 -13 39 C-12.34988921 33.60841455 -10.61545341 28.90865452 -8.6875 23.875 C-8.05190595 22.18675417 -7.4177902 20.49795105 -6.78515625 18.80859375 C-6.47852051 17.98987793 -6.17188477 17.17116211 -5.85595703 16.32763672 C-4.37574318 12.30243452 -3.04317967 8.23385699 -1.7265625 4.15234375 C-1 2 -1 2 0 0 Z " fill="#F7D200" transform="translate(261,17)"/>
<path d="M0 0 C8.58 0 17.16 0 26 0 C26 2.31 26 4.62 26 7 C20.06 7 14.12 7 8 7 C8 9.97 8 12.94 8 16 C13.61 16 19.22 16 25 16 C25 18.31 25 20.62 25 23 C19.39 23 13.78 23 8 23 C8 25.97 8 28.94 8 32 C13.94 32 19.88 32 26 32 C26 34.31 26 36.62 26 39 C17.42 39 8.84 39 0 39 C0 26.13 0 13.26 0 0 Z " fill="#F6D100" transform="translate(325,17)"/>
<path d="M0 0 C8.58 0 17.16 0 26 0 C26 2.31 26 4.62 26 7 C20.06 7 14.12 7 8 7 C8 9.97 8 12.94 8 16 C13.61 16 19.22 16 25 16 C25 18.31 25 20.62 25 23 C19.39 23 13.78 23 8 23 C8 25.97 8 28.94 8 32 C13.94 32 19.88 32 26 32 C26 34.31 26 36.62 26 39 C17.42 39 8.84 39 0 39 C0 26.13 0 13.26 0 0 Z " fill="#F8F8F8" transform="translate(147,17)"/>
<path d="M0 0 C2.97 0 5.94 0 9 0 C12.42841078 9.24546843 15.4104033 18.4807004 18 28 C20.19610877 22.25329621 22.2086506 16.47034717 24.125 10.625 C24.64704578 9.03339701 25.17041929 7.44222871 25.6953125 5.8515625 C26.0358667 4.81249756 26.0358667 4.81249756 26.38330078 3.75244141 C27 2 27 2 28 0 C30.97 0 33.94 0 37 0 C34.8661638 8.3401125 32.22434523 16.44186608 29.375 24.5625 C28.96765625 25.73619141 28.5603125 26.90988281 28.140625 28.11914062 C25.14983631 36.70032738 25.14983631 36.70032738 24 39 C20.37 39 16.74 39 13 39 C12.731875 38.24460938 12.46375 37.48921875 12.1875 36.7109375 C11.795625 35.61007813 11.40375 34.50921875 11 33.375 C10.78577393 32.77196045 10.57154785 32.1689209 10.35083008 31.54760742 C8.88915524 27.4475413 7.39752925 23.35957401 5.88671875 19.27734375 C5.52384766 18.29266113 5.16097656 17.30797852 4.78710938 16.29345703 C4.05926435 14.32032476 3.32754734 12.34861608 2.59179688 10.37841797 C2.25599609 9.46592285 1.92019531 8.55342773 1.57421875 7.61328125 C1.27088623 6.79641846 0.96755371 5.97955566 0.6550293 5.13793945 C0 3 0 3 0 0 Z " fill="#F6D200" transform="translate(283,17)"/>
<path d="M0 0 C10.56 0 21.12 0 32 0 C32 2.31 32 4.62 32 7 C28.04 7 24.08 7 20 7 C20 17.56 20 28.12 20 39 C17.36 39 14.72 39 12 39 C12 28.44 12 17.88 12 7 C8.04 7 4.08 7 0 7 C0 4.69 0 2.38 0 0 Z " fill="#F8D300" transform="translate(178,17)"/>
<path d="M0 0 C2.97 0 5.94 0 9 0 C9 10.56 9 21.12 9 32 C14.28 32 19.56 32 25 32 C25 34.31 25 36.62 25 39 C16.75 39 8.5 39 0 39 C0 26.13 0 13.26 0 0 Z " fill="#EECB01" transform="translate(357,17)"/>
<path d="M0 0 C2.875 2.4375 2.875 2.4375 5 5 C5.33 5.33 5.66 5.66 6 6 C6.1790571 8.07823652 6.26807871 10.16453717 6.3125 12.25 C6.34988281 13.38953125 6.38726562 14.5290625 6.42578125 15.703125 C5.91835313 19.63220148 4.74671582 21.20742065 2 24 C-1.10048928 25.55024464 -3.57894218 25.28992015 -7 25 C-10.38939556 22.86320715 -11.72582557 21.8225233 -13 18 C-13.39724804 13.064957 -13.65675597 8.53243061 -11.6875 3.9375 C-8.10095704 -0.18038266 -5.28309537 -0.63761496 0 0 Z " fill="#161616" transform="translate(87,24)"/>
<path d="M0 0 C8.21900826 -0.48347107 8.21900826 -0.48347107 11.625 1.625 C13 4 13 4 12.9375 7.125 C12 10 12 10 9 12 C5.97670744 12.2610788 3.04123758 12.08815181 0 12 C0 8.04 0 4.08 0 0 Z " fill="#1B1B14" transform="translate(223,24)"/>
<path d="M0 0 C1.588125 -0.061875 3.17625 -0.12375 4.8125 -0.1875 C6.15248047 -0.23970703 6.15248047 -0.23970703 7.51953125 -0.29296875 C10 0 10 0 11.8046875 1.3515625 C13.47948435 3.66124965 13.35691675 5.21604938 13 8 C11 10 11 10 8.3984375 10.1953125 C7.40070312 10.17210937 6.40296875 10.14890625 5.375 10.125 C3.87066406 10.09792969 3.87066406 10.09792969 2.3359375 10.0703125 C1.56507812 10.04710937 0.79421875 10.02390625 0 10 C0 6.7 0 3.4 0 0 Z " fill="#141414" transform="translate(39,39)"/>
<path d="M0 0 C8.625 -0.25 8.625 -0.25 12 2 C12.3125 4.5 12.3125 4.5 12 7 C10 9 10 9 7.6171875 9.1953125 C6.71226563 9.17210937 5.80734375 9.14890625 4.875 9.125 C3.50988281 9.09792969 3.50988281 9.09792969 2.1171875 9.0703125 C1.41851562 9.04710937 0.71984375 9.02390625 0 9 C0 6.03 0 3.06 0 0 Z " fill="#161616" transform="translate(39,24)"/>
<path d="M0 0 C2.31005869 2.31005869 2.72174103 3.83083657 3.625 6.9375 C3.88539063 7.81277344 4.14578125 8.68804687 4.4140625 9.58984375 C5 12 5 12 5 15 C2.03 15 -0.94 15 -4 15 C-2.07289294 4.44191344 -2.07289294 4.44191344 0 0 Z " fill="#201E13" transform="translate(266,26)"/>
<path d="M0 0 C2.97 0 5.94 0 9 0 C8.67 0.99 8.34 1.98 8 3 C5.36 3 2.72 3 0 3 C0 2.01 0 1.02 0 0 Z " fill="#DFC202" transform="translate(311,17)"/>
</svg>
